<?xml version="1.0" encoding="UTF-8"?><svg id="Layer_2" xmlns="http://www.w3.org/2000/svg" viewBox="0 0 55 25"><defs><style>.cls-1{fill:#50c878;}.cls-1,.cls-2{stroke-width:0px;}.cls-2{fill:#5054c7;}</style></defs><g id="Layer_1-2"><path class="cls-2" d="M22.55,25c-7.98,0-11.2-5.37-12.14-9.71-2.3.6-5.41,2.32-5.41,7.21H0c0-9.79,8.21-12.48,12.56-12.53l2.53-.03v2.53c.01,1.25.44,7.53,7.46,7.53s7.45-6.29,7.46-7.55h5c.01,1.25.44,7.48,7.46,7.48s7.45-6.23,7.46-7.48h5c0,4.33-2.6,12.48-12.46,12.48-4.95,0-8.07-2.05-9.95-4.64-1.88,2.62-5.01,4.71-9.98,4.71Z"/><path class="cls-1" d="M15.12,15.05l-2.5-.02C8.28,14.98.06,12.29.06,2.5h5c0,4.89,3.1,6.61,5.41,7.21C11.41,5.37,14.64,0,22.61,0c4.97,0,8.1,2.08,9.98,4.71C34.47,2.12,37.59.06,42.54.06c9.86,0,12.46,8.16,12.46,12.47h-5,2.5-2.5c-.01-1.24-.44-7.47-7.46-7.47s-7.46,6.7-7.46,7.47h-5c-.01-1.25-.44-7.53-7.46-7.53s-7.45,6.29-7.46,7.55l-.03,2.5Z"/></g></svg>